<mxfile host="app.diagrams.net" modified="2022-02-19T12:41:36.651Z" agent="5.0 (X11; Linux x86_64) AppleWebKit/537.36 (KHTML, like Gecko) Chrome/87.0.4280.88 Safari/537.36" etag="IEpEJ_7LrzaDXtUTNTW7" version="16.6.1" type="github">
  <diagram id="c3NVhmy61CZIWcNbgc0m" name="Page-1">
    <mxGraphModel dx="1719" dy="926" grid="1" gridSize="10" guides="1" tooltips="1" connect="1" arrows="1" fold="1" page="1" pageScale="1" pageWidth="827" pageHeight="1169" math="0" shadow="0">
      <root>
        <mxCell id="0" />
        <mxCell id="1" parent="0" />
        <mxCell id="dew0b84TVuCjswUlFT---6" style="edgeStyle=orthogonalEdgeStyle;rounded=0;orthogonalLoop=1;jettySize=auto;html=1;exitX=1;exitY=0.25;exitDx=0;exitDy=0;entryX=0;entryY=0.5;entryDx=0;entryDy=0;" edge="1" parent="1" source="dew0b84TVuCjswUlFT---1" target="dew0b84TVuCjswUlFT---2">
          <mxGeometry relative="1" as="geometry" />
        </mxCell>
        <mxCell id="dew0b84TVuCjswUlFT---1" value="Source数据源" style="rounded=0;whiteSpace=wrap;html=1;" vertex="1" parent="1">
          <mxGeometry x="130" y="290" width="120" height="70" as="geometry" />
        </mxCell>
        <mxCell id="dew0b84TVuCjswUlFT---2" value="ReadStream" style="rounded=0;whiteSpace=wrap;html=1;" vertex="1" parent="1">
          <mxGeometry x="300" y="290" width="120" height="30" as="geometry" />
        </mxCell>
        <mxCell id="dew0b84TVuCjswUlFT---9" style="edgeStyle=orthogonalEdgeStyle;rounded=0;orthogonalLoop=1;jettySize=auto;html=1;exitX=1;exitY=0.5;exitDx=0;exitDy=0;entryX=0;entryY=0.75;entryDx=0;entryDy=0;" edge="1" parent="1" source="dew0b84TVuCjswUlFT---3" target="dew0b84TVuCjswUlFT---8">
          <mxGeometry relative="1" as="geometry" />
        </mxCell>
        <mxCell id="dew0b84TVuCjswUlFT---3" value="WriteStream" style="rounded=0;whiteSpace=wrap;html=1;" vertex="1" parent="1">
          <mxGeometry x="300" y="330" width="120" height="30" as="geometry" />
        </mxCell>
        <mxCell id="dew0b84TVuCjswUlFT---8" value="Sink数据槽" style="rounded=0;whiteSpace=wrap;html=1;" vertex="1" parent="1">
          <mxGeometry x="470" y="290" width="120" height="70" as="geometry" />
        </mxCell>
      </root>
    </mxGraphModel>
  </diagram>
</mxfile>
